<mxfile host="Electron" agent="Mozilla/5.0 (Windows NT 10.0; Win64; x64) AppleWebKit/537.36 (KHTML, like Gecko) draw.io/24.7.5 Chrome/126.0.6478.183 Electron/31.3.0 Safari/537.36" version="24.7.5" pages="2">
  <diagram name="原理" id="3HUcaHWkWq-bFsYtBxbJ">
    <mxGraphModel dx="1608" dy="544" grid="1" gridSize="10" guides="1" tooltips="1" connect="1" arrows="1" fold="1" page="1" pageScale="1" pageWidth="827" pageHeight="1169" math="0" shadow="0">
      <root>
        <mxCell id="0" />
        <mxCell id="1" parent="0" />
        <mxCell id="t8UCtQE4L3LUWUmZH09j-3" style="edgeStyle=orthogonalEdgeStyle;rounded=0;orthogonalLoop=1;jettySize=auto;html=1;exitX=1;exitY=0.3333333333333333;exitDx=0;exitDy=0;exitPerimeter=0;entryX=0;entryY=0.5;entryDx=0;entryDy=0;" parent="1" source="t8UCtQE4L3LUWUmZH09j-1" target="t8UCtQE4L3LUWUmZH09j-2" edge="1">
          <mxGeometry relative="1" as="geometry">
            <mxPoint x="140" y="370" as="targetPoint" />
          </mxGeometry>
        </mxCell>
        <mxCell id="t8UCtQE4L3LUWUmZH09j-1" value="用户" style="shape=umlActor;verticalLabelPosition=bottom;verticalAlign=top;html=1;outlineConnect=0;" parent="1" vertex="1">
          <mxGeometry x="10" y="350" width="30" height="60" as="geometry" />
        </mxCell>
        <mxCell id="t8UCtQE4L3LUWUmZH09j-5" style="edgeStyle=orthogonalEdgeStyle;rounded=0;orthogonalLoop=1;jettySize=auto;html=1;exitX=1;exitY=0.5;exitDx=0;exitDy=0;entryX=0;entryY=0.5;entryDx=0;entryDy=0;curved=1;" parent="1" source="t8UCtQE4L3LUWUmZH09j-19" target="t8UCtQE4L3LUWUmZH09j-4" edge="1">
          <mxGeometry relative="1" as="geometry" />
        </mxCell>
        <mxCell id="t8UCtQE4L3LUWUmZH09j-20" style="edgeStyle=orthogonalEdgeStyle;rounded=0;orthogonalLoop=1;jettySize=auto;html=1;exitX=0.5;exitY=1;exitDx=0;exitDy=0;entryX=0.5;entryY=0;entryDx=0;entryDy=0;" parent="1" source="t8UCtQE4L3LUWUmZH09j-2" target="t8UCtQE4L3LUWUmZH09j-19" edge="1">
          <mxGeometry relative="1" as="geometry" />
        </mxCell>
        <mxCell id="t8UCtQE4L3LUWUmZH09j-2" value="抽奖接口" style="rounded=1;whiteSpace=wrap;html=1;" parent="1" vertex="1">
          <mxGeometry x="70" y="355" width="120" height="30" as="geometry" />
        </mxCell>
        <mxCell id="t8UCtQE4L3LUWUmZH09j-13" style="edgeStyle=orthogonalEdgeStyle;rounded=0;orthogonalLoop=1;jettySize=auto;html=1;exitX=1;exitY=0.5;exitDx=0;exitDy=0;entryX=1;entryY=0.5;entryDx=0;entryDy=0;curved=1;" parent="1" source="t8UCtQE4L3LUWUmZH09j-4" target="t8UCtQE4L3LUWUmZH09j-8" edge="1">
          <mxGeometry relative="1" as="geometry" />
        </mxCell>
        <mxCell id="t8UCtQE4L3LUWUmZH09j-4" value="Aop 生成代理类" style="rounded=1;whiteSpace=wrap;html=1;" parent="1" vertex="1">
          <mxGeometry x="230" y="355" width="120" height="30" as="geometry" />
        </mxCell>
        <mxCell id="t8UCtQE4L3LUWUmZH09j-12" style="edgeStyle=orthogonalEdgeStyle;rounded=0;orthogonalLoop=1;jettySize=auto;html=1;exitX=0.5;exitY=1;exitDx=0;exitDy=0;" parent="1" source="t8UCtQE4L3LUWUmZH09j-8" target="t8UCtQE4L3LUWUmZH09j-24" edge="1">
          <mxGeometry relative="1" as="geometry">
            <mxPoint x="270" y="460" as="targetPoint" />
          </mxGeometry>
        </mxCell>
        <mxCell id="t8UCtQE4L3LUWUmZH09j-8" value="Guava RateLimiter 限流" style="rounded=1;whiteSpace=wrap;html=1;" parent="1" vertex="1">
          <mxGeometry x="230" y="410" width="130" height="30" as="geometry" />
        </mxCell>
        <mxCell id="t8UCtQE4L3LUWUmZH09j-16" value="......" style="text;html=1;align=center;verticalAlign=middle;resizable=0;points=[];autosize=1;strokeColor=none;fillColor=none;" parent="1" vertex="1">
          <mxGeometry x="30" y="495" width="40" height="30" as="geometry" />
        </mxCell>
        <mxCell id="t8UCtQE4L3LUWUmZH09j-19" value="注解标记接口" style="rounded=1;whiteSpace=wrap;html=1;" parent="1" vertex="1">
          <mxGeometry x="70" y="410" width="120" height="30" as="geometry" />
        </mxCell>
        <mxCell id="t8UCtQE4L3LUWUmZH09j-22" value="" style="group" parent="1" vertex="1" connectable="0">
          <mxGeometry x="-30" y="470" width="300" height="145" as="geometry" />
        </mxCell>
        <mxCell id="t8UCtQE4L3LUWUmZH09j-15" style="edgeStyle=orthogonalEdgeStyle;rounded=0;orthogonalLoop=1;jettySize=auto;html=1;entryX=1;entryY=0.5;entryDx=0;entryDy=0;" parent="t8UCtQE4L3LUWUmZH09j-22" source="t8UCtQE4L3LUWUmZH09j-10" target="t8UCtQE4L3LUWUmZH09j-14" edge="1">
          <mxGeometry relative="1" as="geometry" />
        </mxCell>
        <mxCell id="t8UCtQE4L3LUWUmZH09j-18" style="edgeStyle=orthogonalEdgeStyle;rounded=0;orthogonalLoop=1;jettySize=auto;html=1;exitX=0.5;exitY=1;exitDx=0;exitDy=0;entryX=0.5;entryY=0;entryDx=0;entryDy=0;" parent="t8UCtQE4L3LUWUmZH09j-22" source="t8UCtQE4L3LUWUmZH09j-10" target="t8UCtQE4L3LUWUmZH09j-17" edge="1">
          <mxGeometry relative="1" as="geometry" />
        </mxCell>
        <mxCell id="t8UCtQE4L3LUWUmZH09j-10" value="获取令牌" style="rhombus;whiteSpace=wrap;html=1;" parent="t8UCtQE4L3LUWUmZH09j-22" vertex="1">
          <mxGeometry x="185" width="60" height="80" as="geometry" />
        </mxCell>
        <mxCell id="t8UCtQE4L3LUWUmZH09j-14" value="成功放行执行后续流程" style="rounded=1;whiteSpace=wrap;html=1;" parent="t8UCtQE4L3LUWUmZH09j-22" vertex="1">
          <mxGeometry y="25" width="140" height="30" as="geometry" />
        </mxCell>
        <mxCell id="t8UCtQE4L3LUWUmZH09j-17" value="失败熔断提醒用户重试" style="rounded=1;whiteSpace=wrap;html=1;" parent="t8UCtQE4L3LUWUmZH09j-22" vertex="1">
          <mxGeometry x="145" y="115" width="140" height="30" as="geometry" />
        </mxCell>
        <mxCell id="t8UCtQE4L3LUWUmZH09j-28" value="否" style="text;html=1;align=center;verticalAlign=middle;whiteSpace=wrap;rounded=0;" parent="t8UCtQE4L3LUWUmZH09j-22" vertex="1">
          <mxGeometry x="240" width="60" height="30" as="geometry" />
        </mxCell>
        <mxCell id="t8UCtQE4L3LUWUmZH09j-25" style="edgeStyle=orthogonalEdgeStyle;rounded=0;orthogonalLoop=1;jettySize=auto;html=1;exitX=0;exitY=0.5;exitDx=0;exitDy=0;entryX=1;entryY=0.5;entryDx=0;entryDy=0;" parent="1" source="t8UCtQE4L3LUWUmZH09j-24" target="t8UCtQE4L3LUWUmZH09j-10" edge="1">
          <mxGeometry relative="1" as="geometry" />
        </mxCell>
        <mxCell id="t8UCtQE4L3LUWUmZH09j-26" style="edgeStyle=orthogonalEdgeStyle;rounded=0;orthogonalLoop=1;jettySize=auto;html=1;exitX=0.5;exitY=1;exitDx=0;exitDy=0;entryX=1;entryY=0.5;entryDx=0;entryDy=0;" parent="1" source="t8UCtQE4L3LUWUmZH09j-24" target="t8UCtQE4L3LUWUmZH09j-17" edge="1">
          <mxGeometry relative="1" as="geometry" />
        </mxCell>
        <mxCell id="t8UCtQE4L3LUWUmZH09j-24" value="限流&lt;div&gt;黑名单&lt;/div&gt;" style="rhombus;whiteSpace=wrap;html=1;" parent="1" vertex="1">
          <mxGeometry x="265" y="470" width="60" height="80" as="geometry" />
        </mxCell>
        <mxCell id="t8UCtQE4L3LUWUmZH09j-27" value="是" style="text;html=1;align=center;verticalAlign=middle;whiteSpace=wrap;rounded=0;" parent="1" vertex="1">
          <mxGeometry x="300" y="555" width="60" height="30" as="geometry" />
        </mxCell>
      </root>
    </mxGraphModel>
  </diagram>
  <diagram id="lqzzIIzSALkNOU6tvbN3" name="实践">
    <mxGraphModel dx="1304" dy="760" grid="1" gridSize="10" guides="1" tooltips="1" connect="1" arrows="1" fold="1" page="1" pageScale="1" pageWidth="827" pageHeight="1169" math="0" shadow="0">
      <root>
        <mxCell id="0" />
        <mxCell id="1" parent="0" />
        <mxCell id="mWJmLu4KBbsI8RA3MoeE-3" style="edgeStyle=orthogonalEdgeStyle;rounded=0;orthogonalLoop=1;jettySize=auto;html=1;exitX=0.5;exitY=0.5;exitDx=0;exitDy=0;exitPerimeter=0;entryX=0;entryY=0.5;entryDx=0;entryDy=0;" edge="1" parent="1" source="mWJmLu4KBbsI8RA3MoeE-1" target="mWJmLu4KBbsI8RA3MoeE-2">
          <mxGeometry relative="1" as="geometry" />
        </mxCell>
        <mxCell id="mWJmLu4KBbsI8RA3MoeE-1" value="Actor" style="shape=umlActor;verticalLabelPosition=bottom;verticalAlign=top;html=1;outlineConnect=0;" vertex="1" parent="1">
          <mxGeometry x="50" y="200" width="30" height="60" as="geometry" />
        </mxCell>
        <mxCell id="mWJmLu4KBbsI8RA3MoeE-5" style="edgeStyle=orthogonalEdgeStyle;rounded=0;orthogonalLoop=1;jettySize=auto;html=1;exitX=1;exitY=0.5;exitDx=0;exitDy=0;entryX=0;entryY=0.5;entryDx=0;entryDy=0;" edge="1" parent="1" source="mWJmLu4KBbsI8RA3MoeE-2" target="mWJmLu4KBbsI8RA3MoeE-4">
          <mxGeometry relative="1" as="geometry" />
        </mxCell>
        <mxCell id="mWJmLu4KBbsI8RA3MoeE-2" value="活动抽奖" style="rounded=1;whiteSpace=wrap;html=1;" vertex="1" parent="1">
          <mxGeometry x="160" y="210" width="140" height="40" as="geometry" />
        </mxCell>
        <mxCell id="mWJmLu4KBbsI8RA3MoeE-15" style="edgeStyle=orthogonalEdgeStyle;rounded=0;orthogonalLoop=1;jettySize=auto;html=1;" edge="1" parent="1" source="mWJmLu4KBbsI8RA3MoeE-4" target="mWJmLu4KBbsI8RA3MoeE-6">
          <mxGeometry relative="1" as="geometry" />
        </mxCell>
        <mxCell id="mWJmLu4KBbsI8RA3MoeE-4" value="注解标记 aop 代理" style="rounded=1;whiteSpace=wrap;html=1;" vertex="1" parent="1">
          <mxGeometry x="340" y="210" width="140" height="40" as="geometry" />
        </mxCell>
        <mxCell id="mWJmLu4KBbsI8RA3MoeE-6" value="获取注解配置信息" style="rounded=1;whiteSpace=wrap;html=1;" vertex="1" parent="1">
          <mxGeometry x="340" y="280" width="140" height="40" as="geometry" />
        </mxCell>
        <mxCell id="mWJmLu4KBbsI8RA3MoeE-19" style="edgeStyle=orthogonalEdgeStyle;rounded=0;orthogonalLoop=1;jettySize=auto;html=1;exitX=0.5;exitY=1;exitDx=0;exitDy=0;entryX=0.5;entryY=0;entryDx=0;entryDy=0;" edge="1" parent="1" source="mWJmLu4KBbsI8RA3MoeE-7" target="mWJmLu4KBbsI8RA3MoeE-9">
          <mxGeometry relative="1" as="geometry" />
        </mxCell>
        <mxCell id="mWJmLu4KBbsI8RA3MoeE-31" style="edgeStyle=orthogonalEdgeStyle;rounded=0;orthogonalLoop=1;jettySize=auto;html=1;exitX=1;exitY=0.5;exitDx=0;exitDy=0;entryX=0;entryY=0.5;entryDx=0;entryDy=0;" edge="1" parent="1" source="mWJmLu4KBbsI8RA3MoeE-7" target="mWJmLu4KBbsI8RA3MoeE-24">
          <mxGeometry relative="1" as="geometry" />
        </mxCell>
        <mxCell id="mWJmLu4KBbsI8RA3MoeE-7" value="DCC 限流开关" style="rounded=1;whiteSpace=wrap;html=1;" vertex="1" parent="1">
          <mxGeometry x="343" y="350" width="140" height="40" as="geometry" />
        </mxCell>
        <mxCell id="mWJmLu4KBbsI8RA3MoeE-20" style="edgeStyle=orthogonalEdgeStyle;rounded=0;orthogonalLoop=1;jettySize=auto;html=1;exitX=0.5;exitY=1;exitDx=0;exitDy=0;entryX=0.5;entryY=0;entryDx=0;entryDy=0;" edge="1" parent="1" source="mWJmLu4KBbsI8RA3MoeE-9" target="mWJmLu4KBbsI8RA3MoeE-13">
          <mxGeometry relative="1" as="geometry" />
        </mxCell>
        <mxCell id="mWJmLu4KBbsI8RA3MoeE-9" value="反射获取 用户 id" style="rounded=1;whiteSpace=wrap;html=1;" vertex="1" parent="1">
          <mxGeometry x="343" y="420" width="140" height="40" as="geometry" />
        </mxCell>
        <mxCell id="mWJmLu4KBbsI8RA3MoeE-14" style="edgeStyle=orthogonalEdgeStyle;rounded=0;orthogonalLoop=1;jettySize=auto;html=1;exitX=1;exitY=0.5;exitDx=0;exitDy=0;exitPerimeter=0;entryX=0;entryY=0.5;entryDx=0;entryDy=0;" edge="1" parent="1" source="mWJmLu4KBbsI8RA3MoeE-10" target="mWJmLu4KBbsI8RA3MoeE-13">
          <mxGeometry relative="1" as="geometry" />
        </mxCell>
        <mxCell id="mWJmLu4KBbsI8RA3MoeE-10" value="Redis/Guava" style="shape=cylinder3;whiteSpace=wrap;html=1;boundedLbl=1;backgroundOutline=1;size=15;fillColor=#f8cecc;strokeColor=#b85450;" vertex="1" parent="1">
          <mxGeometry x="150" y="320" width="80" height="80" as="geometry" />
        </mxCell>
        <mxCell id="mWJmLu4KBbsI8RA3MoeE-22" style="edgeStyle=orthogonalEdgeStyle;rounded=0;orthogonalLoop=1;jettySize=auto;html=1;exitX=0.5;exitY=1;exitDx=0;exitDy=0;" edge="1" parent="1" source="mWJmLu4KBbsI8RA3MoeE-13" target="mWJmLu4KBbsI8RA3MoeE-25">
          <mxGeometry relative="1" as="geometry">
            <mxPoint x="411.5" y="565" as="targetPoint" />
          </mxGeometry>
        </mxCell>
        <mxCell id="mWJmLu4KBbsI8RA3MoeE-32" style="edgeStyle=orthogonalEdgeStyle;rounded=0;orthogonalLoop=1;jettySize=auto;html=1;exitX=1;exitY=0.5;exitDx=0;exitDy=0;entryX=0;entryY=0.5;entryDx=0;entryDy=0;" edge="1" parent="1" source="mWJmLu4KBbsI8RA3MoeE-13" target="mWJmLu4KBbsI8RA3MoeE-24">
          <mxGeometry relative="1" as="geometry" />
        </mxCell>
        <mxCell id="mWJmLu4KBbsI8RA3MoeE-13" value="&amp;nbsp;黑名单检查" style="rounded=1;whiteSpace=wrap;html=1;" vertex="1" parent="1">
          <mxGeometry x="343" y="490" width="140" height="40" as="geometry" />
        </mxCell>
        <mxCell id="mWJmLu4KBbsI8RA3MoeE-18" style="edgeStyle=orthogonalEdgeStyle;rounded=0;orthogonalLoop=1;jettySize=auto;html=1;exitX=0.5;exitY=1;exitDx=0;exitDy=0;entryX=0.463;entryY=0.023;entryDx=0;entryDy=0;entryPerimeter=0;" edge="1" parent="1" source="mWJmLu4KBbsI8RA3MoeE-6" target="mWJmLu4KBbsI8RA3MoeE-7">
          <mxGeometry relative="1" as="geometry" />
        </mxCell>
        <mxCell id="mWJmLu4KBbsI8RA3MoeE-23" style="edgeStyle=orthogonalEdgeStyle;rounded=0;orthogonalLoop=1;jettySize=auto;html=1;exitX=0;exitY=0.5;exitDx=0;exitDy=0;entryX=0.5;entryY=1;entryDx=0;entryDy=0;entryPerimeter=0;" edge="1" parent="1" source="mWJmLu4KBbsI8RA3MoeE-25" target="mWJmLu4KBbsI8RA3MoeE-10">
          <mxGeometry relative="1" as="geometry">
            <mxPoint x="340" y="585" as="sourcePoint" />
          </mxGeometry>
        </mxCell>
        <mxCell id="mWJmLu4KBbsI8RA3MoeE-24" value="放行执行后续流程" style="rounded=1;whiteSpace=wrap;html=1;" vertex="1" parent="1">
          <mxGeometry x="570" y="210" width="140" height="40" as="geometry" />
        </mxCell>
        <mxCell id="mWJmLu4KBbsI8RA3MoeE-25" value="令牌限流" style="rhombus;whiteSpace=wrap;html=1;" vertex="1" parent="1">
          <mxGeometry x="373" y="570" width="80" height="80" as="geometry" />
        </mxCell>
        <mxCell id="mWJmLu4KBbsI8RA3MoeE-26" style="edgeStyle=orthogonalEdgeStyle;rounded=0;orthogonalLoop=1;jettySize=auto;html=1;exitX=1;exitY=0.5;exitDx=0;exitDy=0;entryX=0.562;entryY=0.977;entryDx=0;entryDy=0;entryPerimeter=0;" edge="1" parent="1" source="mWJmLu4KBbsI8RA3MoeE-25" target="mWJmLu4KBbsI8RA3MoeE-24">
          <mxGeometry relative="1" as="geometry" />
        </mxCell>
        <mxCell id="mWJmLu4KBbsI8RA3MoeE-27" value="用户限流用户uId 存入缓存" style="text;html=1;align=center;verticalAlign=middle;whiteSpace=wrap;rounded=0;" vertex="1" parent="1">
          <mxGeometry x="220" y="570" width="90" height="30" as="geometry" />
        </mxCell>
        <mxCell id="mWJmLu4KBbsI8RA3MoeE-28" value="获得令牌" style="text;html=1;align=center;verticalAlign=middle;whiteSpace=wrap;rounded=0;" vertex="1" parent="1">
          <mxGeometry x="510" y="570" width="60" height="30" as="geometry" />
        </mxCell>
        <mxCell id="mWJmLu4KBbsI8RA3MoeE-30" value="拉取用户黑名单" style="text;html=1;align=center;verticalAlign=middle;whiteSpace=wrap;rounded=0;" vertex="1" parent="1">
          <mxGeometry x="230" y="410" width="60" height="30" as="geometry" />
        </mxCell>
      </root>
    </mxGraphModel>
  </diagram>
</mxfile>
